<svg width="1070" height="200" viewBox="0 0 1070 200" fill="none" xmlns="http://www.w3.org/2000/svg">
<path d="M78.2 105.4V79.4H149C149.667 90.6 148.533 101.067 145.6 110.8C142.667 120.533 138.133 129.133 132 136.6C125.867 144.067 118.2 149.933 109 154.2C99.8 158.333 89.2667 160.4 77.4 160.4C66.2 160.4 55.9333 158.667 46.6 155.2C37.2667 151.6 29.2 146.533 22.4 140C15.6 133.333 10.2667 125.467 6.4 116.4C2.66667 107.2 0.8 97.0667 0.8 86C0.8 74.9333 2.73333 64.9333 6.6 56C10.4667 46.9333 15.9333 39.2 23 32.8C30.0667 26.4 38.3333 21.4667 47.8 18C57.2667 14.5333 67.5333 12.8 78.6 12.8C88.4667 12.8 97.3333 14.2 105.2 17C113.067 19.8 120 23.7333 126 28.8C132.133 33.7333 137.4 39.4667 141.8 46L111.8 61.6C108.6 56 104.267 51.4 98.8 47.8C93.4667 44.0667 86.7333 42.2 78.6 42.2C70.8667 42.2 63.7333 43.9333 57.2 47.4C50.8 50.8667 45.6667 55.8667 41.8 62.4C38.0667 68.8 36.2 76.6667 36.2 86C36.2 95.2 38 103.2 41.6 110C45.3333 116.667 50.3333 121.867 56.6 125.6C63 129.2 70.3333 131 78.6 131C83.6667 131 88.2667 130.4 92.4 129.2C96.5333 127.867 100.067 126.067 103 123.8C105.933 121.4 108.4 118.667 110.4 115.6C112.533 112.4 114.2 109 115.4 105.4H78.2ZM163.291 110C163.291 100.267 165.557 91.8 170.091 84.6C174.624 77.4 180.891 71.8 188.891 67.8C196.891 63.8 205.891 61.8 215.891 61.8C225.891 61.8 234.824 63.8 242.691 67.8C250.691 71.8 256.957 77.4 261.491 84.6C266.157 91.8 268.491 100.267 268.491 110C268.491 119.6 266.157 128 261.491 135.2C256.957 142.4 250.691 148 242.691 152C234.824 156 225.891 158 215.891 158C205.891 158 196.891 156 188.891 152C180.891 148 174.624 142.4 170.091 135.2C165.557 128 163.291 119.6 163.291 110ZM194.291 110C194.291 114.8 195.291 118.933 197.291 122.4C199.291 125.733 201.891 128.333 205.091 130.2C208.291 132.067 211.891 133 215.891 133C219.757 133 223.291 132.067 226.491 130.2C229.824 128.333 232.424 125.733 234.291 122.4C236.291 118.933 237.291 114.8 237.291 110C237.291 105.2 236.291 101.067 234.291 97.6C232.424 94.1333 229.824 91.4667 226.491 89.6C223.291 87.7333 219.757 86.8 215.891 86.8C211.891 86.8 208.291 87.7333 205.091 89.6C201.891 91.4667 199.291 94.1333 197.291 97.6C195.291 101.067 194.291 105.2 194.291 110ZM281.259 110C281.259 100.267 283.526 91.8 288.059 84.6C292.593 77.4 298.859 71.8 306.859 67.8C314.859 63.8 323.859 61.8 333.859 61.8C343.859 61.8 352.793 63.8 360.659 67.8C368.659 71.8 374.926 77.4 379.459 84.6C384.126 91.8 386.459 100.267 386.459 110C386.459 119.6 384.126 128 379.459 135.2C374.926 142.4 368.659 148 360.659 152C352.793 156 343.859 158 333.859 158C323.859 158 314.859 156 306.859 152C298.859 148 292.593 142.4 288.059 135.2C283.526 128 281.259 119.6 281.259 110ZM312.259 110C312.259 114.8 313.259 118.933 315.259 122.4C317.259 125.733 319.859 128.333 323.059 130.2C326.259 132.067 329.859 133 333.859 133C337.726 133 341.259 132.067 344.459 130.2C347.793 128.333 350.393 125.733 352.259 122.4C354.259 118.933 355.259 114.8 355.259 110C355.259 105.2 354.259 101.067 352.259 97.6C350.393 94.1333 347.793 91.4667 344.459 89.6C341.259 87.7333 337.726 86.8 333.859 86.8C329.859 86.8 326.259 87.7333 323.059 89.6C319.859 91.4667 317.259 94.1333 315.259 97.6C313.259 101.067 312.259 105.2 312.259 110ZM474.428 -6.19888e-06H504.628V156H474.428V-6.19888e-06ZM399.228 110C399.228 99.6 401.295 90.8667 405.428 83.8C409.695 76.7333 415.161 71.3333 421.828 67.6C428.495 63.8667 435.561 62 443.028 62C450.761 62 457.561 63.9333 463.428 67.8C469.428 71.6667 474.161 77.2 477.628 84.4C481.095 91.4667 482.828 100 482.828 110C482.828 119.867 481.095 128.4 477.628 135.6C474.161 142.8 469.428 148.333 463.428 152.2C457.561 156.067 450.761 158 443.028 158C435.561 158 428.495 156.133 421.828 152.4C415.161 148.667 409.695 143.267 405.428 136.2C401.295 129 399.228 120.267 399.228 110ZM431.028 110C431.028 114.8 432.028 119 434.028 122.6C436.028 126.067 438.695 128.8 442.028 130.8C445.361 132.667 449.028 133.6 453.028 133.6C456.495 133.6 459.828 132.667 463.028 130.8C466.361 128.933 469.095 126.267 471.228 122.8C473.361 119.2 474.428 114.933 474.428 110C474.428 105.067 473.361 100.867 471.228 97.4C469.095 93.8 466.361 91.0667 463.028 89.2C459.828 87.3333 456.495 86.4 453.028 86.4C449.028 86.4 445.361 87.4 442.028 89.4C438.695 91.2667 436.028 94 434.028 97.6C432.028 101.067 431.028 105.2 431.028 110ZM533.066 122.6C537.732 126.467 541.932 129.533 545.666 131.8C549.532 133.933 552.932 135.467 555.866 136.4C558.799 137.2 561.332 137.6 563.466 137.6C566.532 137.6 568.799 136.933 570.266 135.6C571.732 134.267 572.466 132.533 572.466 130.4C572.466 128.4 571.866 126.733 570.666 125.4C569.466 123.933 567.399 122.533 564.466 121.2C561.666 119.867 557.799 118.467 552.866 117C548.466 115.4 544.266 113.533 540.266 111.4C536.399 109.133 533.199 106.133 530.666 102.4C528.132 98.6667 526.866 93.8667 526.866 88C526.866 82.4 528.332 77.6667 531.266 73.8C534.332 69.9333 538.399 67 543.466 65C548.666 63 554.599 62 561.266 62C566.599 62 571.532 62.6 576.066 63.8C580.732 65 585.066 66.6 589.066 68.6C593.199 70.6 597.066 72.9333 600.666 75.6L589.866 95.2C585.999 91.6 581.599 88.6667 576.666 86.4C571.732 84 567.199 82.8 563.066 82.8C560.266 82.8 558.132 83.3333 556.666 84.4C555.332 85.4667 554.666 86.8667 554.666 88.6C554.666 90.6 555.466 92.2667 557.066 93.6C558.799 94.9333 561.199 96.2 564.266 97.4C567.466 98.4667 571.332 99.8667 575.866 101.6C580.666 103.333 585.066 105.333 589.066 107.6C593.199 109.867 596.466 112.733 598.866 116.2C601.399 119.667 602.666 124.267 602.666 130C602.666 139.867 599.599 147.333 593.466 152.4C587.466 157.333 578.999 159.8 568.066 159.8C561.399 159.8 555.199 159 549.466 157.4C543.866 155.933 538.666 153.933 533.866 151.4C529.066 148.733 524.599 145.8 520.466 142.6L533.066 122.6ZM610.277 131.2L691.477 16H716.677V156H681.477V120.8L685.277 118.6V65L655.077 106.8H706.677L710.077 102.4H738.677V131.2H610.277ZM853.125 64L793.125 200H762.725L785.125 148.6L745.325 64H778.525L808.325 137.8L792.725 137.6L822.125 64H853.125ZM854.892 110C854.892 100.267 857.159 91.8 861.692 84.6C866.226 77.4 872.492 71.8 880.492 67.8C888.492 63.8 897.492 61.8 907.492 61.8C917.492 61.8 926.426 63.8 934.292 67.8C942.292 71.8 948.559 77.4 953.092 84.6C957.759 91.8 960.092 100.267 960.092 110C960.092 119.6 957.759 128 953.092 135.2C948.559 142.4 942.292 148 934.292 152C926.426 156 917.492 158 907.492 158C897.492 158 888.492 156 880.492 152C872.492 148 866.226 142.4 861.692 135.2C857.159 128 854.892 119.6 854.892 110ZM885.892 110C885.892 114.8 886.892 118.933 888.892 122.4C890.892 125.733 893.492 128.333 896.692 130.2C899.892 132.067 903.492 133 907.492 133C911.359 133 914.892 132.067 918.092 130.2C921.426 128.333 924.026 125.733 925.892 122.4C927.892 118.933 928.892 114.8 928.892 110C928.892 105.2 927.892 101.067 925.892 97.6C924.026 94.1333 921.426 91.4667 918.092 89.6C914.892 87.7333 911.359 86.8 907.492 86.8C903.492 86.8 899.892 87.7333 896.692 89.6C893.492 91.4667 890.892 94.1333 888.892 97.6C886.892 101.067 885.892 105.2 885.892 110ZM1009.86 120C1009.86 125.333 1010.86 129.533 1012.86 132.6C1014.86 135.533 1018.33 137 1023.26 137C1026.59 137 1029.39 136.333 1031.66 135C1034.06 133.667 1035.93 131.733 1037.26 129.2C1038.59 126.667 1039.26 123.6 1039.26 120V64H1069.46V156H1039.26V142.2C1036.46 147.133 1032.79 151.067 1028.26 154C1023.73 156.8 1018.06 158.2 1011.26 158.2C999.794 158.2 991.394 155.133 986.061 149C980.861 142.733 978.261 134.133 978.261 123.2V64H1009.86V120Z" fill="white" fill-opacity="0.12"/>
</svg>
